<mxfile host="app.diagrams.net" agent="Mozilla/5.0 (Windows NT 10.0; Win64; x64; rv:134.0) Gecko/20100101 Firefox/134.0" version="26.0.6">
  <diagram name="Σελίδα-1" id="WikFuL04EMKIzGFrJ5iD">
    <mxGraphModel dx="1050" dy="558" grid="1" gridSize="10" guides="1" tooltips="1" connect="1" arrows="1" fold="1" page="1" pageScale="1" pageWidth="827" pageHeight="1169" math="0" shadow="0">
      <root>
        <mxCell id="0" />
        <mxCell id="1" parent="0" />
        <mxCell id="p4xqSGx35OTutLI4ono5-2" value="" style="rounded=0;whiteSpace=wrap;html=1;fillColor=#dae8fc;strokeColor=#6c8ebf;" vertex="1" parent="1">
          <mxGeometry x="140" y="140" width="120" height="190" as="geometry" />
        </mxCell>
        <mxCell id="p4xqSGx35OTutLI4ono5-3" value="&lt;div&gt;Main Program&lt;/div&gt;" style="rounded=0;whiteSpace=wrap;html=1;" vertex="1" parent="1">
          <mxGeometry x="140" y="140" width="120" height="20" as="geometry" />
        </mxCell>
        <mxCell id="p4xqSGx35OTutLI4ono5-8" style="edgeStyle=orthogonalEdgeStyle;rounded=0;orthogonalLoop=1;jettySize=auto;html=1;exitX=1;exitY=0.75;exitDx=0;exitDy=0;fillColor=#f8cecc;strokeColor=#b85450;" edge="1" parent="1" source="p4xqSGx35OTutLI4ono5-4">
          <mxGeometry relative="1" as="geometry">
            <mxPoint x="460" y="269" as="targetPoint" />
          </mxGeometry>
        </mxCell>
        <mxCell id="p4xqSGx35OTutLI4ono5-13" style="edgeStyle=orthogonalEdgeStyle;rounded=0;orthogonalLoop=1;jettySize=auto;html=1;exitX=1;exitY=0.25;exitDx=0;exitDy=0;entryX=0;entryY=0.5;entryDx=0;entryDy=0;" edge="1" parent="1" source="p4xqSGx35OTutLI4ono5-4" target="p4xqSGx35OTutLI4ono5-12">
          <mxGeometry relative="1" as="geometry" />
        </mxCell>
        <mxCell id="p4xqSGx35OTutLI4ono5-4" value="DIVISION BY ZERO" style="rounded=0;whiteSpace=wrap;html=1;" vertex="1" parent="1">
          <mxGeometry x="140" y="250" width="120" height="25" as="geometry" />
        </mxCell>
        <mxCell id="p4xqSGx35OTutLI4ono5-6" value="&lt;div&gt;Exception Handling Code&lt;/div&gt;" style="rounded=0;whiteSpace=wrap;html=1;fillColor=#d5e8d4;strokeColor=#82b366;" vertex="1" parent="1">
          <mxGeometry x="380" y="130" width="120" height="110" as="geometry" />
        </mxCell>
        <mxCell id="p4xqSGx35OTutLI4ono5-9" value="&lt;div&gt;Unhandled Exception&lt;/div&gt;&lt;div&gt;&lt;br&gt;&lt;/div&gt;" style="text;html=1;align=center;verticalAlign=middle;resizable=0;points=[];autosize=1;strokeColor=none;fillColor=none;" vertex="1" parent="1">
          <mxGeometry x="285" y="273" width="130" height="40" as="geometry" />
        </mxCell>
        <mxCell id="p4xqSGx35OTutLI4ono5-10" value="&lt;div&gt;Program Exits&lt;/div&gt;&lt;div&gt;&amp;nbsp;with Error Code&lt;/div&gt;" style="text;html=1;align=center;verticalAlign=middle;resizable=0;points=[];autosize=1;strokeColor=none;fillColor=none;" vertex="1" parent="1">
          <mxGeometry x="450" y="250" width="110" height="40" as="geometry" />
        </mxCell>
        <mxCell id="p4xqSGx35OTutLI4ono5-12" value="Exception Handler" style="rounded=0;whiteSpace=wrap;html=1;" vertex="1" parent="1">
          <mxGeometry x="380" y="130" width="120" height="20" as="geometry" />
        </mxCell>
        <mxCell id="p4xqSGx35OTutLI4ono5-14" value="Handled&lt;br&gt;&lt;div&gt;Exception&lt;/div&gt;" style="text;html=1;align=center;verticalAlign=middle;resizable=0;points=[];autosize=1;strokeColor=none;fillColor=none;" vertex="1" parent="1">
          <mxGeometry x="260" y="190" width="70" height="40" as="geometry" />
        </mxCell>
        <mxCell id="p4xqSGx35OTutLI4ono5-15" value="Return control to designated address" style="rounded=0;whiteSpace=wrap;html=1;" vertex="1" parent="1">
          <mxGeometry x="380" y="220" width="120" height="30" as="geometry" />
        </mxCell>
        <mxCell id="p4xqSGx35OTutLI4ono5-16" style="edgeStyle=orthogonalEdgeStyle;rounded=0;orthogonalLoop=1;jettySize=auto;html=1;exitX=0.5;exitY=1;exitDx=0;exitDy=0;entryX=1.017;entryY=0.9;entryDx=0;entryDy=0;entryPerimeter=0;" edge="1" parent="1" source="p4xqSGx35OTutLI4ono5-15" target="p4xqSGx35OTutLI4ono5-2">
          <mxGeometry relative="1" as="geometry" />
        </mxCell>
      </root>
    </mxGraphModel>
  </diagram>
</mxfile>
